HIERARCHY
ROOT Hips
{
 OFFSET 0.000000 0.000000 0.000000
 CHANNELS 6 Xposition Yposition Zposition Yrotation Xrotation Zrotation
 JOINT Chest
 {
  OFFSET 0.000000 9.585900 0.002600
  CHANNELS 3 Yrotation Xrotation Zrotation
  JOINT Chest2
  {
   OFFSET 0.000000 9.601200 -0.005300
   CHANNELS 3 Yrotation Xrotation Zrotation
   JOINT Chest3
   {
    OFFSET 0.000000 9.561800 0.000000
    CHANNELS 3 Yrotation Xrotation Zrotation
    JOINT Chest4
    {
     OFFSET 0.000000 9.552100 0.000000
     CHANNELS 3 Yrotation Xrotation Zrotation
     JOINT Neck
     {
      OFFSET 0.000000 14.453000 0.000000
      CHANNELS 3 Yrotation Xrotation Zrotation
      JOINT Head
      {
       OFFSET 0.000000 8.936500 -0.011300
       CHANNELS 3 Yrotation Xrotation Zrotation
       End Site
       {
        OFFSET 0.000000 17.073600 -0.006000
       }
      }
     }
     JOINT RightCollar
     {
      OFFSET -2.921100 9.558500 0.000000
      CHANNELS 3 Yrotation Xrotation Zrotation
      JOINT RightShoulder
      {
       OFFSET -13.519700 0.000000 0.000000
       CHANNELS 3 Yrotation Xrotation Zrotation
       JOINT RightElbow
       {
        OFFSET 0.000000 -29.696600 0.000000
        CHANNELS 3 Yrotation Xrotation Zrotation
        JOINT RightWrist
        {
         OFFSET 0.000000 -24.004700 0.000000
         CHANNELS 3 Yrotation Xrotation Zrotation
         End Site
         {
          OFFSET 0.000000 -17.728500 0.000000
         }
        }
       }
      }
     }
     JOINT LeftCollar
     {
      OFFSET 2.921100 9.558500 0.000000
      CHANNELS 3 Yrotation Xrotation Zrotation
      JOINT LeftShoulder
      {
       OFFSET 13.519700 0.000000 0.000000
       CHANNELS 3 Yrotation Xrotation Zrotation
       JOINT LeftElbow
       {
        OFFSET 0.000000 -29.696600 0.000000
        CHANNELS 3 Yrotation Xrotation Zrotation
        JOINT LeftWrist
        {
         OFFSET 0.000000 -24.004700 0.000000
         CHANNELS 3 Yrotation Xrotation Zrotation
         End Site
         {
          OFFSET 0.000000 -17.728500 0.000000
         }
        }
       }
      }
     }
    }
   }
  }
 }
 JOINT RightHip
 {
  OFFSET -7.771700 -0.012900 -0.001300
  CHANNELS 3 Yrotation Xrotation Zrotation
  JOINT RightKnee
  {
   OFFSET 0.000000 -40.869800 0.001200
   CHANNELS 3 Yrotation Xrotation Zrotation
   JOINT RightAnkle
   {
    OFFSET 0.000000 -39.717900 0.002100
    CHANNELS 3 Yrotation Xrotation Zrotation
    JOINT RightToe
    {
     OFFSET 0.000000 -4.965400 11.033500
     CHANNELS 3 Yrotation Xrotation Zrotation
     End Site
     {
      OFFSET 0.000000 -1.423100 5.872300
     }
    }
   }
  }
 }
 JOINT LeftHip
 {
  OFFSET 7.771700 -0.012900 -0.001300
  CHANNELS 3 Yrotation Xrotation Zrotation
  JOINT LeftKnee
  {
   OFFSET 0.000000 -40.869800 0.001200
   CHANNELS 3 Yrotation Xrotation Zrotation
   JOINT LeftAnkle
   {
    OFFSET 0.000000 -39.717900 0.002100
    CHANNELS 3 Yrotation Xrotation Zrotation
    JOINT LeftToe
    {
     OFFSET 0.000000 -4.965400 11.033500
     CHANNELS 3 Yrotation Xrotation Zrotation
     End Site
     {
      OFFSET 0.000000 -1.423100 5.872300
     }
    }
   }
  }
 }
}
MOTION
Frames: 11
Frame Time: 0.008333
0.000000 85.388000 0.000000 0.000000 -5.767877 0.000000 0.000000 11.653817 0.000000 0.000000 -5.885947 0.000000 0.000000 -0.000000 0.000000 0.000000 -0.000000 0.000000 0.000000 12.528835 0.000000 0.000000 0.711642 0.000000 0.000000 -0.000000 0.000000 0.000000 0.000000 -90.000000 0.000000 -2.309062 0.000000 0.000000 2.309062 0.000000 0.000000 -0.000000 0.000000 0.000000 -0.000000 90.000000 0.000000 -2.309062 0.000000 0.000000 2.309062 0.000000 0.000000 8.520406 0.000000 0.000000 1.905762 0.000000 -0.000000 -4.658285 0.000000 0.000000 -0.000000 0.000000 0.000000 8.520406 0.000000 0.000000 1.905762 0.000000 -0.000000 -4.658285 0.000000 0.000000 -0.000000 0.000000
-46.700441 50.535101 2.110312 164.870253 -6.692631 0.099947 3.610161 6.189682 0.761234 0.149469 0.266528 0.001735 0.261512 0.471432 -0.010790 3.318882 5.964365 -0.003173 1.981692 21.581742 0.713720 3.392562 4.295858 0.712656 1.784034 7.452103 0.728680 -8.126183 -11.920235 -6.170262 -50.367574 -68.072200 73.316873 -2.891554 -2.559305 -15.326505 -5.397114 4.271613 0.299138 20.937532 -5.238685 0.753064 53.840068 -71.643452 -78.892575 -0.973964 10.052650 8.857924 1.329739 -74.004601 -6.345729 -117.011795 81.018268 -115.835189 -2.078212 -14.682619 1.271329 -0.342694 0.839194 -0.173780 -8.342953 -77.443003 23.776873 110.297650 79.342821 106.615299 -16.749334 -21.984651 0.116479 -0.277710 -1.037800 -0.116629
-46.701407 50.536532 2.115426 164.891431 -6.680740 0.118024 3.587589 6.176446 0.749419 0.148858 0.265552 0.007161 0.260394 0.470904 -0.010301 3.307378 5.960882 0.007903 1.983455 21.579574 0.693224 3.397470 4.283262 0.701284 1.811218 7.450157 0.742612 -8.134928 -11.924800 -6.178696 -50.360482 -68.077122 73.329853 -2.875386 -2.547804 -15.337342 -5.404253 4.244852 0.292533 20.954593 -5.236848 0.741595 53.890031 -71.657510 -78.953318 -0.985978 10.046130 8.831203 1.128939 -74.018606 -6.230363 -117.066989 81.055384 -115.918635 -2.036512 -14.700221 1.239068 -0.364878 0.850136 -0.189609 -8.277543 -77.452474 23.699595 110.168620 79.328309 106.467115 -16.777993 -21.948866 0.128788 -0.279233 -1.043778 -0.116659
-46.692900 50.538476 2.121981 164.891846 -6.679793 0.086163 3.591579 6.169119 0.804218 0.147761 0.267412 -0.003040 0.259367 0.470446 -0.009938 3.288387 5.954765 0.030694 1.992857 21.566796 0.662503 3.412967 4.251688 0.675354 1.828834 7.458370 0.714402 -8.135186 -11.933374 -6.152147 -50.440880 -68.072857 73.443945 -2.863192 -2.540706 -15.304974 -5.390971 4.242813 0.259692 20.957535 -5.244024 0.737944 53.918365 -71.666114 -78.987388 -1.005032 10.030386 8.807909 0.942278 -74.020344 -6.069427 -117.107417 81.071460 -115.901547 -2.103747 -14.692568 1.147770 -0.276888 0.841201 -0.151323 -8.421479 -77.444233 23.854424 110.087306 79.324927 106.376910 -16.775039 -21.936152 0.133083 -0.303929 -1.033880 -0.125386
-46.689880 50.540797 2.126793 164.893607 -6.684436 0.092050 3.588305 6.172239 0.811128 0.147071 0.267098 -0.002867 0.259712 0.470321 -0.013606 3.280902 5.954274 0.033224 2.005247 21.520541 0.657349 3.447152 4.192936 0.626757 1.838399 7.459230 0.711887 -8.135345 -11.940032 -6.135237 -50.420266 -68.082567 73.427294 -2.868852 -2.552116 -15.278492 -5.386077 4.236930 0.252968 20.960168 -5.249829 0.733471 53.944807 -71.676271 -79.020374 -1.006676 10.035613 8.802331 0.877662 -74.017374 -6.029431 -117.078686 81.072531 -115.854550 -2.125729 -14.690477 1.106284 -0.238892 0.841583 -0.132623 -8.392956 -77.438096 23.827460 110.019683 79.321721 106.303439 -16.786586 -21.896680 0.135193 -0.334686 -1.040636 -0.131722
-46.691865 50.543601 2.128389 164.876401 -6.703294 0.136268 3.596860 6.192845 0.786485 0.146491 0.267497 -0.005710 0.263613 0.470043 -0.024648 3.278438 5.954098 0.034074 2.009481 21.495839 0.654561 3.482370 4.134201 0.584216 1.845525 7.452460 0.725625 -8.135829 -11.937371 -6.145224 -50.493496 -68.073326 73.519952 -2.859741 -2.548276 -15.274425 -5.388233 4.230766 0.259743 20.968514 -5.280529 0.726963 53.961696 -71.679351 -79.047947 -0.999264 10.060722 8.802699 0.613387 -74.013107 -5.831722 -117.125834 81.113223 -115.990026 -2.048862 -14.689628 1.098288 -0.295355 0.837469 -0.171589 -8.172914 -77.416993 23.627471 109.967109 79.329840 106.244007 -16.813346 -21.854785 0.135035 -0.324758 -1.054946 -0.125853
-46.690839 50.546265 2.133726 164.880503 -6.707861 0.155805 3.584596 6.201194 0.779568 0.145944 0.267344 -0.005685 0.263960 0.466219 -0.022604 3.262626 5.952788 0.035005 2.026759 21.475437 0.634211 3.512860 4.085254 0.547966 1.877080 7.446117 0.739762 -8.136898 -11.941491 -6.146469 -50.512096 -68.079678 73.545926 -2.852247 -2.544872 -15.273812 -5.376605 4.222856 0.256464 20.976443 -5.280084 0.715808 54.052145 -71.705466 -79.153663 -0.990302 10.077167 8.789463 0.456043 -74.017187 -5.725227 -117.139846 81.130247 -116.041441 -2.005072 -14.682336 1.088192 -0.327302 0.829271 -0.188148 -8.092200 -77.405591 23.546346 109.851750 79.333558 106.113977 -16.815886 -21.812388 0.136027 -0.306311 -1.058866 -0.123716
-46.690145 50.549086 2.138974 164.882254 -6.714343 0.177817 3.574151 6.213014 0.769175 0.145571 0.267332 -0.005676 0.262099 0.464960 -0.021577 3.255045 5.954961 0.035518 2.039698 21.453779 0.615985 3.546751 4.026119 0.509025 1.891298 7.441340 0.728617 -8.132064 -11.948625 -6.124425 -50.516250 -68.090372 73.548411 -2.853494 -2.544110 -15.265667 -5.364807 4.215694 0.245921 20.979339 -5.287329 0.712667 54.123197 -71.721257 -79.243777 -1.000197 10.067314 8.747581 0.328705 -74.019357 -5.654320 -117.173508 81.144648 -116.085930 -1.973729 -14.678926 1.042133 -0.345135 0.822598 -0.175055 -7.996444 -77.392649 23.454065 109.732585 79.332412 105.977342 -16.837224 -21.763274 0.146375 -0.319974 -1.068056 -0.128474
-46.684745 50.551906 2.146918 164.866817 -6.713705 0.170322 3.587427 6.213869 0.783947 0.142794 0.270136 -0.000629 0.255954 0.467194 -0.011965 3.242243 5.959704 0.036065 2.054189 21.437984 0.589275 3.585028 3.953444 0.463221 1.914578 7.431125 0.721049 -8.129986 -11.963807 -6.089816 -50.451732 -68.119325 73.477097 -2.852570 -2.537796 -15.262052 -5.348693 4.195355 0.230079 20.985432 -5.283809 0.709478 54.199587 -71.731554 -79.336761 -0.995303 10.089464 8.751886 0.145618 -74.026593 -5.514732 -117.107068 81.133791 -115.980217 -1.956779 -14.663607 0.960028 -0.295930 0.807722 -0.154297 -8.043515 -77.378186 23.529499 109.608761 79.335122 105.836808 -16.866181 -21.724617 0.152848 -0.302483 -1.035979 -0.129908
-46.685551 50.554253 2.159190 164.892846 -6.678859 0.187161 3.555801 6.181809 0.766845 0.141566 0.275490 0.003079 0.258754 0.461157 -0.018442 3.239732 5.962296 0.037841 2.066546 21.409345 0.578078 3.616024 3.898582 0.421753 1.919636 7.428442 0.729455 -8.124962 -11.971193 -6.081293 -50.422705 -68.132538 73.441668 -2.855802 -2.540585 -15.253632 -5.358580 4.189486 0.226843 20.999436 -5.282709 0.708549 54.247440 -71.735150 -79.393626 -0.999460 10.095987 8.748564 0.066355 -74.067286 -5.510498 -117.130163 81.154468 -115.991576 -1.950715 -14.652606 0.953705 -0.278934 0.799980 -0.185868 -8.039140 -77.406946 23.503144 109.371124 79.322090 105.573604 -16.901054 -21.628211 0.161757 -0.329302 -1.059584 -0.135119
-46.683857 50.557514 2.166394 164.895665 -6.677238 0.200924 3.548251 6.189279 0.761542 0.142756 0.271388 -0.002134 0.257088 0.465254 -0.013371 3.238581 5.959126 0.032275 2.092734 21.358799 0.552708 3.636562 3.861633 0.395847 1.924336 7.425413 0.739458 -8.117253 -11.979817 -6.077063 -50.437954 -68.144319 73.457642 -2.852963 -2.531283 -15.243548 -5.360447 4.188828 0.224173 20.998704 -5.291951 0.707380 54.268864 -71.731702 -79.414695 -1.007278 10.092900 8.728193 0.025064 -74.070868 -5.510969 -117.167681 81.180510 -116.027008 -1.917256 -14.643473 0.948535 -0.305167 0.793183 -0.208311 -8.008273 -77.401982 23.472785 109.229949 79.315524 105.415735 -16.928320 -21.557159 0.167848 -0.354912 -1.071087 -0.139907
